<svg viewBox="0 0 16 16" fill="none" xmlns="http://www.w3.org/2000/svg">
<path opacity="0.4" d="M6 4.8V11.1933C6 13.3333 7.33333 14.6667 9.46667 14.6667H11.1933C13.3267 14.6667 14.66 13.3333 14.66 11.2V4.8C14.6667 2.66667 13.3333 1.33334 11.2 1.33334H9.46667C7.33333 1.33334 6 2.66667 6 4.8Z" fill="white"/>
<path d="M8.28683 5.41334L10.5202 7.64667C10.7135 7.84 10.7135 8.16 10.5202 8.35334L8.28683 10.5867C8.0935 10.78 7.7735 10.78 7.58016 10.5867C7.38683 10.3933 7.38683 10.0733 7.58016 9.88L8.96016 8.5H1.8335C1.56016 8.5 1.3335 8.27334 1.3335 8C1.3335 7.72667 1.56016 7.5 1.8335 7.5H8.96016L7.58016 6.12C7.48016 6.02 7.4335 5.89334 7.4335 5.76667C7.4335 5.64 7.48016 5.51334 7.58016 5.41334C7.7735 5.21334 8.08683 5.21334 8.28683 5.41334Z" fill="white"/>
</svg>
