<svg viewBox="0 0 13 14" fill="none" xmlns="http://www.w3.org/2000/svg">
<path fill-rule="evenodd" clip-rule="evenodd" d="M9.66647 0.653038C9.86173 0.457776 10.1783 0.457776 10.3736 0.653038L12.8536 3.13302C13.0488 3.32828 13.0488 3.64486 12.8536 3.84012L10.3736 6.32014C10.1783 6.51541 9.86173 6.51541 9.66647 6.32015C9.47121 6.12489 9.4712 5.80831 9.66646 5.61304L11.2929 3.98657H0.5C0.223858 3.98657 0 3.76271 0 3.48657C0 3.21043 0.223858 2.98657 0.5 2.98657H11.2929L9.66647 1.36015C9.4712 1.16488 9.4712 0.848301 9.66647 0.653038ZM3.33353 7.67969C3.52879 7.87495 3.5288 8.19153 3.33354 8.38679L1.70709 10.0133H12.5C12.7761 10.0133 13 10.2371 13 10.5133C13 10.7894 12.7761 11.0133 12.5 11.0133H1.70711L3.33353 12.6397C3.5288 12.835 3.5288 13.1515 3.33353 13.3468C3.13827 13.5421 2.82169 13.5421 2.62643 13.3468L0.146447 10.8668C-0.0488144 10.6716 -0.0488157 10.355 0.146444 10.1597L2.62642 7.67969C2.82168 7.48443 3.13827 7.48443 3.33353 7.67969Z" fill="#F19467"/>
</svg>
