<svg viewBox="0 0 16 16" fill="none" xmlns="http://www.w3.org/2000/svg">
<path opacity="0.4" d="M9.93337 1.33325H6.06671C5.61338 1.33325 4.97337 1.59992 4.65337 1.91992L1.92004 4.65326C1.60004 4.97326 1.33337 5.61326 1.33337 6.06659V9.93325C1.33337 10.3866 1.60004 11.0266 1.92004 11.3466L4.65337 14.0799C4.97337 14.3999 5.61338 14.6666 6.06671 14.6666H9.93337C10.3867 14.6666 11.0267 14.3999 11.3467 14.0799L14.08 11.3466C14.4 11.0266 14.6667 10.3866 14.6667 9.93325V6.06659C14.6667 5.61326 14.4 4.97326 14.08 4.65326L11.3467 1.91992C11.0267 1.59992 10.3867 1.33325 9.93337 1.33325Z" fill="#D76565"/>
<path d="M8.70667 8.00012L10.6867 6.02012C10.88 5.82679 10.88 5.50679 10.6867 5.31346C10.4933 5.12012 10.1733 5.12012 9.98 5.31346L8 7.29346L6.02 5.31346C5.82667 5.12012 5.50667 5.12012 5.31333 5.31346C5.12 5.50679 5.12 5.82679 5.31333 6.02012L7.29334 8.00012L5.31333 9.98012C5.12 10.1735 5.12 10.4935 5.31333 10.6868C5.41333 10.7868 5.54 10.8335 5.66667 10.8335C5.79333 10.8335 5.92 10.7868 6.02 10.6868L8 8.70679L9.98 10.6868C10.08 10.7868 10.2067 10.8335 10.3333 10.8335C10.46 10.8335 10.5867 10.7868 10.6867 10.6868C10.88 10.4935 10.88 10.1735 10.6867 9.98012L8.70667 8.00012Z" fill="#D76565"/>
</svg>
