<svg viewBox="0 0 136 64" fill="none" xmlns="http://www.w3.org/2000/svg">
<g clip-path="url(#clip0_998_12602)">
<path d="M11.3003 35.3328C10.896 35.5848 10.4043 35.7788 9.82319 35.9139C9.24206 36.048 8.62384 36.1155 7.96758 36.1155C6.1833 36.1155 4.8118 35.678 3.85214 34.803C2.89247 33.928 2.41311 32.6231 2.41311 30.8892V26.2944H0.41864V22.7087H2.41311V19.1487H7.2105V22.7087H10.3415V26.2944H7.2105V30.8388C7.2105 31.3267 7.3408 31.71 7.6014 31.9877C7.862 32.2655 8.21106 32.4043 8.64952 32.4043C9.20497 32.4043 9.69288 32.2617 10.1142 31.9754L11.3012 35.3337L11.3003 35.3328Z" fill="white"/>
<path d="M24.7575 30.2577H14.8098C15.0115 30.9643 15.4033 31.5074 15.9835 31.886C16.5646 32.2645 17.2922 32.4538 18.1672 32.4538C18.8235 32.4538 19.3913 32.3615 19.8716 32.1761C20.351 31.9906 20.8351 31.6881 21.323 31.2668L23.8482 33.8928C22.5186 35.3737 20.5745 36.1146 18.016 36.1146C16.4163 36.1146 15.0115 35.8112 13.7998 35.2053C12.5881 34.5995 11.6493 33.7577 10.9845 32.6801C10.3197 31.6035 9.98678 30.3823 9.98678 29.0193C9.98678 27.6564 10.3111 26.4656 10.9588 25.3966C11.6065 24.3275 12.5025 23.4905 13.6476 22.8847C14.7918 22.2788 16.0796 21.9754 17.511 21.9754C18.9424 21.9754 20.1113 22.257 21.2222 22.821C22.3331 23.385 23.2129 24.201 23.8606 25.2701C24.5083 26.3391 24.8326 27.605 24.8326 29.0697C24.8326 29.104 24.8069 29.4987 24.7565 30.2567L24.7575 30.2577ZM15.6811 26.0157C15.1846 26.4371 14.8688 27.0087 14.7347 27.7325H20.3396C20.2045 27.0087 19.8888 26.4371 19.3932 26.0157C18.8967 25.5953 18.2776 25.3842 17.5376 25.3842C16.7977 25.3842 16.1785 25.5944 15.682 26.0157H15.6811Z" fill="white"/>
<path d="M39.7041 35.8882H35.134V34.5243C34.2419 35.5848 32.9037 36.1155 31.1194 36.1155C29.8735 36.1155 28.7379 35.8255 27.7107 35.2443C26.6835 34.6632 25.8712 33.8348 25.2739 32.7572C24.6766 31.6805 24.378 30.4346 24.378 29.0203C24.378 27.606 24.6766 26.3648 25.2739 25.2957C25.8712 24.2267 26.6835 23.4068 27.7107 22.8343C28.7369 22.2617 29.8735 21.9754 31.1194 21.9754C32.7515 21.9754 34.0146 22.4472 34.9067 23.3897V17.1533H39.7041V35.8882ZM34.1744 31.4323C34.7127 30.8521 34.9819 30.0484 34.9819 29.0212C34.9819 27.994 34.7165 27.2198 34.1867 26.6482C33.657 26.0766 32.9703 25.7894 32.1295 25.7894C31.2887 25.7894 30.5973 26.0757 30.0589 26.6482C29.5197 27.2208 29.2514 28.0121 29.2514 29.0212C29.2514 30.0304 29.5206 30.8521 30.0589 31.4323C30.5973 32.0134 31.2878 32.3035 32.1295 32.3035C32.9712 32.3035 33.6361 32.0134 34.1744 31.4323Z" fill="white"/>
<path d="M55.4335 35.8882H50.8635V34.5243C49.9713 35.5848 48.6331 36.1155 46.8488 36.1155C45.6029 36.1155 44.4673 35.8255 43.4401 35.2443C42.4129 34.6632 41.6006 33.8348 41.0033 32.7572C40.406 31.6805 40.1074 30.4346 40.1074 29.0203C40.1074 27.606 40.406 26.3648 41.0033 25.2957C41.6006 24.2267 42.4129 23.4068 43.4401 22.8343C44.4663 22.2617 45.6029 21.9754 46.8488 21.9754C48.4809 21.9754 49.744 22.4472 50.6361 23.3897V17.1533H55.4335V35.8882ZM49.9038 31.4323C50.4421 30.8521 50.7113 30.0484 50.7113 29.0212C50.7113 27.994 50.4459 27.2198 49.9161 26.6482C49.3864 26.0766 48.6997 25.7894 47.8589 25.7894C47.0181 25.7894 46.3267 26.0757 45.7883 26.6482C45.2491 27.2208 44.9809 28.0121 44.9809 29.0212C44.9809 30.0304 45.25 30.8521 45.7883 31.4323C46.3267 32.0134 47.0172 32.3035 47.8589 32.3035C48.7006 32.3035 49.3655 32.0134 49.9038 31.4323Z" fill="white"/>
<path d="M71.0364 22.2037L65.1282 36.4437C64.4377 38.1271 63.5959 39.3094 62.603 39.9913C61.61 40.6732 60.3974 41.0137 58.9669 41.0137C58.2431 41.0137 57.5155 40.9006 56.7831 40.6732C56.0508 40.4459 55.4573 40.1473 55.0036 39.7773L56.67 36.4189C56.9391 36.671 57.2635 36.8688 57.642 37.0124C58.0205 37.1551 58.4029 37.2274 58.7909 37.2274C59.2456 37.2274 59.6193 37.1342 59.9142 36.9497C60.2081 36.7642 60.4573 36.4703 60.6589 36.0661L54.801 22.2046H59.724L63.0823 30.562L66.4654 22.2046H71.0355L71.0364 22.2037Z" fill="white"/>
<path d="M83.3171 29.2864C83.941 30.0045 84.254 30.8738 84.254 31.8943C84.254 32.7266 84.0286 33.4988 83.5796 34.2103C83.1298 34.9217 82.445 35.4952 81.5262 35.9318C80.6065 36.3674 79.4689 36.5861 78.1136 36.5861C77.1197 36.5861 76.1372 36.4654 75.1642 36.2238C74.1913 35.9822 73.3486 35.6398 72.6371 35.1966L74.0866 32.1968C74.6373 32.5725 75.2574 32.8616 75.9489 33.0623C76.6404 33.2639 77.3213 33.3647 77.9928 33.3647C78.6643 33.3647 79.2207 33.2373 79.624 32.9824C80.0263 32.7275 80.2279 32.3651 80.2279 31.8953C80.2279 30.9822 79.5098 30.5257 78.0737 30.5257H76.4026V28.0091L78.9192 25.2908H73.3619V22.2102H83.5501V24.7068L80.6302 27.8483C81.7982 28.0899 82.6941 28.5702 83.3181 29.2873L83.3171 29.2864Z" fill="white"/>
<path d="M93.6766 27.8769C94.4146 28.2459 95.0024 28.7699 95.438 29.4471C95.8736 30.1253 96.0924 30.9004 96.0924 31.7726C96.0924 32.7256 95.847 33.5683 95.3572 34.2997C94.8674 35.032 94.2025 35.5951 93.3637 35.9907C92.5248 36.3864 91.588 36.5852 90.555 36.5852C88.5416 36.5852 86.9504 35.9879 85.7833 34.7933C84.6154 33.5987 84.0314 31.881 84.0314 29.6383C84.0314 28.0281 84.3434 26.6414 84.9673 25.4801C85.5912 24.3197 86.4672 23.4361 87.5952 22.8322C88.7232 22.2282 90.0319 21.9258 91.5214 21.9258C92.327 21.9258 93.0917 22.0133 93.8164 22.1873C94.5411 22.3623 95.1584 22.6172 95.6691 22.952L94.2197 25.8111C93.5349 25.3279 92.6694 25.0863 91.6222 25.0863C90.575 25.0863 89.7761 25.3678 89.1455 25.9318C88.514 26.4958 88.1516 27.3081 88.0584 28.3676C88.864 27.6695 89.9245 27.3205 91.2398 27.3205C92.1263 27.3205 92.9376 27.505 93.6766 27.874V27.8769ZM91.6935 33.263C92.0492 32.9405 92.2271 32.5049 92.2271 31.9543C92.2271 31.4036 92.0492 30.9879 91.6935 30.6655C91.3378 30.3431 90.8708 30.1823 90.2944 30.1823C89.7181 30.1823 89.2473 30.3469 88.8849 30.676C88.5225 31.005 88.3418 31.4378 88.3418 31.9742C88.3418 32.5107 88.5197 32.9244 88.8754 33.2525C89.2311 33.5816 89.7114 33.7461 90.3154 33.7461C90.8794 33.7461 91.3388 33.5854 91.6945 33.263H91.6935Z" fill="white"/>
<path d="M98.5891 35.7197C97.6494 35.1424 96.9142 34.2997 96.3844 33.1926C95.8537 32.0855 95.5893 30.773 95.5893 29.256C95.5893 27.7389 95.8537 26.4274 96.3844 25.3193C96.9142 24.2122 97.6494 23.3696 98.5891 22.7922C99.5287 22.2149 100.603 21.9267 101.81 21.9267C103.018 21.9267 104.072 22.2159 105.012 22.7922C105.952 23.3696 106.686 24.2122 107.217 25.3193C107.746 26.4264 108.012 27.7389 108.012 29.256C108.012 30.773 107.746 32.0846 107.217 33.1926C106.686 34.2997 105.952 35.1424 105.012 35.7197C104.072 36.297 103.005 36.5852 101.81 36.5852C100.616 36.5852 99.5287 36.297 98.5891 35.7197ZM103.411 32.3471C103.807 31.6965 104.006 30.6655 104.006 29.256C104.006 27.8464 103.808 26.8164 103.411 26.1649C103.015 25.5134 102.481 25.1881 101.81 25.1881C101.14 25.1881 100.585 25.5134 100.19 26.1649C99.7932 26.8164 99.5953 27.8464 99.5953 29.256C99.5953 30.6655 99.7932 31.6956 100.19 32.3471C100.585 32.9986 101.126 33.3238 101.81 33.3238C102.495 33.3238 103.015 32.9986 103.411 32.3471Z" fill="white"/>
<path d="M109.615 26.3941C109.197 26.1924 108.868 25.9119 108.628 25.5552C108.388 25.1976 108.268 24.7934 108.268 24.3425C108.268 23.8917 108.388 23.4875 108.628 23.1299C108.868 22.7723 109.197 22.4926 109.615 22.291C110.034 22.0884 110.506 21.9876 111.032 21.9876C111.558 21.9876 112.045 22.0884 112.464 22.291C112.882 22.4936 113.209 22.7732 113.444 23.1299C113.679 23.4875 113.797 23.8917 113.797 24.3425C113.797 24.7934 113.679 25.1985 113.444 25.5552C113.209 25.9128 112.882 26.1924 112.464 26.3941C112.045 26.5967 111.568 26.6975 111.032 26.6975C110.497 26.6975 110.034 26.5967 109.615 26.3941ZM111.724 25.0749C111.903 24.8961 111.992 24.6517 111.992 24.3416C111.992 24.0315 111.903 23.7757 111.724 23.6007C111.545 23.4266 111.315 23.3401 111.032 23.3401C110.75 23.3401 110.52 23.4276 110.341 23.6007C110.162 23.7747 110.073 24.022 110.073 24.3416C110.073 24.6612 110.162 24.8961 110.341 25.0749C110.52 25.2537 110.75 25.3431 111.032 25.3431C111.315 25.3431 111.545 25.2537 111.724 25.0749Z" fill="white"/>
<path d="M122.472 15.4736C122.471 14.9324 122.391 14.3988 122.305 13.8672C122.197 13.2061 122.042 12.5527 121.828 11.9202C121.489 10.9159 121.054 9.95335 120.467 9.06216C119.947 8.27275 119.333 7.56512 118.634 6.93929C117.839 6.22691 116.945 5.64959 115.971 5.20067C115.171 4.83164 114.338 4.55772 113.483 4.35894C112.885 4.22008 112.278 4.11926 111.659 4.09453C111.421 4.08502 111.185 4.01654 110.941 4.04698C110.71 3.99372 110.473 4.05364 110.241 4.01369C110.17 4.01369 110.097 4.01369 110.026 4.01369C109.794 4.05364 109.557 3.99372 109.325 4.04698C108.884 4.00323 108.446 4.07836 108.009 4.11165C107.407 4.15826 106.808 4.24766 106.21 4.34563C105.253 4.50256 104.312 4.72987 103.383 4.99904C101.921 5.42323 100.503 5.96821 99.1188 6.60355C96.7306 7.70018 94.4727 9.02792 92.2937 10.4907C90.9859 11.3686 89.739 12.3302 88.572 13.3935C88.0803 13.8415 87.6237 14.3303 87.0683 14.7089C86.5613 15.0541 86.0268 15.3204 85.4124 15.4051C85.324 15.4346 85.2269 15.3927 85.1404 15.4384C85.0263 15.4384 84.9121 15.4384 84.798 15.4393C84.6962 15.3851 84.5811 15.4412 84.4775 15.4013C84.3729 15.3509 84.2578 15.4108 84.1474 15.3575C84.0381 15.3052 83.8811 15.3243 83.8526 15.1635C83.826 15.0123 83.9249 14.8896 84.0162 14.8002C84.4984 14.3313 84.9825 13.8634 85.4866 13.4192C86.1742 12.8143 86.8467 12.1913 87.5534 11.6064C88.1573 11.107 88.7508 10.5953 89.3652 10.1093C90.9697 8.8377 92.637 7.65262 94.3766 6.57122C95.8679 5.64484 97.4021 4.7955 98.9876 4.03937C100.17 3.47536 101.37 2.95416 102.6 2.50143C105.209 1.53986 107.879 0.806556 110.624 0.354781C111.654 0.185484 112.693 0.0713507 113.736 0.019991C113.842 -0.0171022 113.952 0.0104799 114.06 0.00191992C114.201 0.00191992 114.343 0.00191992 114.485 0.00191992C114.855 0.00191992 115.224 0.00191992 115.594 0.00191992C115.718 0.00191992 115.842 0.00191992 115.966 0.00191992C116.054 0.00191992 116.144 0.00191992 116.232 0.00191992C118.243 -0.00854225 120.171 0.43182 122.046 1.11567C123.891 1.7881 125.601 2.71638 127.122 3.96708C128.66 5.23206 129.892 6.74812 130.816 8.51623C131.945 10.6762 132.535 12.9893 132.831 15.3937C132.998 16.7538 133.032 18.1196 132.977 19.4834C132.922 20.8664 132.724 22.2378 132.415 23.5894C132.353 23.8614 132.301 24.1334 132.307 24.4149C132.316 24.9228 132.545 25.2243 133.052 25.3347C133.478 25.4279 133.912 25.4773 134.324 25.6238C134.741 25.7722 135.186 25.8378 135.581 26.048V26.1526C135.472 26.1336 135.407 26.2116 135.331 26.2658C133.587 27.507 131.839 28.7434 130.099 29.9903C128.992 30.7845 127.863 31.5454 126.74 32.3139C126.307 32.6097 125.939 33.0015 125.537 33.3439C125.313 33.5341 125.08 33.713 124.808 33.8337C124.383 34.0211 124.069 33.9317 123.8 33.5541C123.536 33.1822 123.349 32.7685 123.151 32.3614C122.661 31.3533 122.237 30.3146 121.79 29.2865C121.475 28.5608 121.125 27.8503 120.792 27.1322C120.454 26.4056 120.123 25.6751 119.782 24.9504C119.317 23.9622 118.845 22.9778 118.379 21.9906C118.303 21.8289 118.241 21.6615 118.165 21.477C118.952 21.6586 119.741 21.7651 120.474 22.1018C120.813 22.2578 121.184 22.3415 121.53 22.0857C121.793 21.8907 121.926 21.5987 121.988 21.302C122.162 20.4612 122.312 19.6166 122.373 18.7568C122.402 18.3564 122.488 17.9607 122.471 17.5565C122.516 17.4481 122.469 17.3301 122.507 17.2208C122.529 16.7309 122.537 16.2411 122.503 15.7523C122.477 15.66 122.51 15.5611 122.471 15.4707L122.472 15.4736Z" fill="#EB6625"/>
<path d="M87.8216 63.9943C87.3669 63.9943 86.9123 63.9952 86.4586 63.9962C86.2522 63.9924 86.0468 63.9895 85.8404 63.9857C85.7044 63.9249 85.556 63.9905 85.4181 63.9467C85.3144 63.942 85.2117 63.9382 85.1081 63.9334C85.0082 63.8754 84.8922 63.9363 84.7904 63.8935C84.721 63.8897 84.6525 63.8859 84.583 63.883C84.5022 63.8259 84.4033 63.883 84.3205 63.8421C83.2724 63.7318 82.2452 63.5168 81.2275 63.2467C79.1703 62.7008 77.2633 61.8419 75.5447 60.5751C74.8247 60.0443 74.1456 59.467 73.5331 58.8165C72.7332 57.9652 72.0313 57.036 71.4426 56.0259C70.7949 54.9141 70.2679 53.748 69.8923 52.5163C69.6031 51.569 69.3596 50.6122 69.2198 49.6288C69.1504 49.138 69.0876 48.6482 69.0439 48.1546C69.0087 48.0528 69.0648 47.9396 69.0068 47.8407C69.003 47.719 68.9982 47.5972 68.9944 47.4764C68.9507 47.3005 69.0144 47.1169 68.9573 46.9419C68.9573 46.375 68.9573 45.8082 68.9564 45.2413C69.0163 45.0501 68.9507 44.8514 68.9925 44.6592C68.9982 44.5052 69.003 44.3501 69.0087 44.1961C69.0676 44.0581 69.002 43.9098 69.0477 43.7709C69.0515 43.6501 69.0553 43.5303 69.0591 43.4095C69.1171 43.2906 69.0591 43.1613 69.0952 43.0405C69.1009 42.9035 69.1066 42.7656 69.1123 42.6286C69.1694 42.4907 69.1085 42.3433 69.1485 42.2035C69.0924 41.7974 69.3796 41.6518 69.6783 41.532C69.9978 41.4036 70.3345 41.3294 70.6798 41.2999C70.8348 41.2809 70.9908 41.2762 71.1458 41.3028C71.7659 41.3589 72.3661 41.5234 72.9776 41.6262C73.0414 41.7451 72.9634 41.882 73.0262 42.0019C73.0309 42.174 73.0357 42.3452 73.0404 42.5173C73.0785 42.6229 73.0261 42.739 73.0775 42.8426C73.0823 42.9254 73.087 43.0091 73.0918 43.0918C73.1327 43.1755 73.0756 43.2735 73.1327 43.3543C73.1945 44.2988 73.4465 45.1995 73.7537 46.0878C74.236 47.484 74.9731 48.7271 75.9622 49.8247C77.5686 51.6071 79.5831 52.6771 81.8943 53.224C82.4792 53.3619 83.0689 53.4893 83.6747 53.4922C83.7613 53.5388 83.8602 53.4931 83.9477 53.5293C84.0675 53.534 84.1864 53.5388 84.3063 53.5435C84.5146 53.6015 84.7295 53.5407 84.9397 53.5787C85.2203 53.6034 85.5009 53.5996 85.7814 53.5806C86.024 53.5359 86.2722 53.6082 86.5138 53.5416C86.6527 53.5369 86.7925 53.5321 86.9313 53.5283C87.035 53.4912 87.1501 53.5454 87.2519 53.4922C88.2572 53.4551 89.2416 53.2687 90.2203 53.0556C91.9789 52.6733 93.6766 52.0978 95.3296 51.3874C97.3079 50.5361 99.1987 49.5213 101.039 48.4038C102.463 47.5392 103.825 46.5852 105.15 45.5809C105.773 45.1082 106.383 44.6164 106.967 44.0933C107.503 43.613 108.055 43.1527 108.598 42.679C108.702 42.5877 108.79 42.4774 108.886 42.3775C109.391 41.8535 109.96 41.3969 110.462 40.8662C110.85 40.4563 111.376 40.3222 111.934 40.3231C116.105 40.3308 120.276 40.3374 124.447 40.3488C124.567 40.3488 124.719 40.2775 124.802 40.4306C124.892 40.598 124.82 40.7302 124.716 40.8748C123.747 42.2339 122.738 43.5617 121.674 44.8504C120.614 46.1354 119.511 47.3804 118.361 48.5873C117.071 49.9417 115.709 51.2162 114.296 52.4374C112.59 53.9116 110.796 55.2679 108.91 56.5015C108.159 56.9922 107.388 57.4516 106.626 57.9253C105.613 58.4874 104.601 59.0514 103.559 59.5593C102.28 60.1823 100.981 60.7567 99.6552 61.2684C97.2442 62.1996 94.7837 62.968 92.2499 63.4893C91.178 63.7099 90.0938 63.8402 89.0057 63.9439C88.61 63.9819 88.2134 63.9743 87.8178 64L87.8216 63.9943Z" fill="#EB6625"/>
</g>
<defs>
<clipPath id="clip0_998_12602">
<rect width="135.163" height="64" fill="white" transform="translate(0.41864)"/>
</clipPath>
</defs>
</svg>
