<svg viewBox="0 0 17 16" fill="none" xmlns="http://www.w3.org/2000/svg">
<path fill-rule="evenodd" clip-rule="evenodd" d="M8.49992 1.83337C5.0707 1.83337 2.33325 4.59488 2.33325 8.00004C2.33325 8.27618 2.10939 8.50004 1.83325 8.50004C1.55711 8.50004 1.33325 8.27618 1.33325 8.00004C1.33325 4.0452 4.51581 0.833374 8.49992 0.833374C10.8717 0.833374 12.6478 1.82404 13.821 2.80276C14.1486 3.07605 14.4304 3.34927 14.6666 3.60138V1.70671C14.6666 1.43056 14.8904 1.20671 15.1666 1.20671C15.4427 1.20671 15.6666 1.43056 15.6666 1.70671V5.04004C15.6666 5.31618 15.4427 5.54004 15.1666 5.54004H12.2066C11.9304 5.54004 11.7066 5.31618 11.7066 5.04004C11.7066 4.7639 11.9304 4.54004 12.2066 4.54004H14.1661C13.9173 4.25164 13.5886 3.91108 13.1805 3.57065C12.132 2.69604 10.5748 1.83337 8.49992 1.83337ZM15.1666 7.50004C15.4427 7.50004 15.6666 7.7239 15.6666 8.00004C15.6666 11.9562 12.4561 15.1667 8.49992 15.1667C6.48628 15.1667 4.88958 14.1532 3.82067 13.1837C3.53694 12.9264 3.28722 12.6694 3.07325 12.4303V14.2934C3.07325 14.5695 2.84939 14.7934 2.57325 14.7934C2.29711 14.7934 2.07325 14.5695 2.07325 14.2934V10.96C2.07325 10.6839 2.29711 10.46 2.57325 10.46H5.58659C5.86273 10.46 6.08659 10.6839 6.08659 10.96C6.08659 11.2362 5.86273 11.46 5.58659 11.46H3.55799C3.79851 11.7525 4.1122 12.0981 4.4925 12.443C5.46693 13.3268 6.83356 14.1667 8.49992 14.1667C11.9038 14.1667 14.6666 11.4039 14.6666 8.00004C14.6666 7.7239 14.8904 7.50004 15.1666 7.50004Z" fill="#F19467"/>
</svg>
