<svg viewBox="0 0 16 16" fill="none" xmlns="http://www.w3.org/2000/svg">
<path d="M11.3866 14.6666H10.4599C10.1799 14.6666 9.94659 14.4399 9.94659 14.1532C9.94659 13.8732 10.1733 13.6399 10.4599 13.6399H11.3866C12.6333 13.6399 13.6399 12.6266 13.6399 11.3866V10.4666C13.6399 10.1866 13.8666 9.95324 14.1533 9.95324C14.4333 9.95324 14.6666 10.1799 14.6666 10.4666V11.3866C14.6666 13.1932 13.1933 14.6666 11.3866 14.6666Z" fill="white"/>
<path d="M6.15325 14.6666H4.61325C2.80659 14.6666 1.33325 13.1932 1.33325 11.3866V9.84657C1.33325 9.55991 1.55992 9.33324 1.84659 9.33324C2.13325 9.33324 2.35992 9.55991 2.35992 9.84657V11.3866C2.35992 12.6332 3.37325 13.6399 4.61325 13.6399H6.15325C6.43325 13.6399 6.66659 13.8666 6.66659 14.1532C6.66659 14.4399 6.43992 14.6666 6.15325 14.6666Z" fill="white"/>
<path d="M12.3066 7.48657H3.69325C3.40659 7.48657 3.17992 7.71991 3.17992 7.99991C3.17992 8.27991 3.40659 8.51324 3.69325 8.51324H12.3066C12.5933 8.51324 12.8199 8.27991 12.8199 7.99991C12.8199 7.71991 12.5933 7.48657 12.3066 7.48657Z" fill="white"/>
<path d="M4.59992 9.29324V9.51324C4.59992 10.6199 5.49325 11.5132 6.59992 11.5132H9.39992C10.5066 11.5132 11.3999 10.6199 11.3999 9.51324V9.29324C11.3999 9.21324 11.3399 9.15324 11.2599 9.15324H4.73992C4.65992 9.15324 4.59992 9.21324 4.59992 9.29324Z" fill="white"/>
<g opacity="0.4">
<path d="M1.84659 6.66658C1.55992 6.66658 1.33325 6.43992 1.33325 6.15325V4.61325C1.33325 2.80659 2.80659 1.33325 4.61325 1.33325H6.15325C6.43992 1.33325 6.66659 1.55992 6.66659 1.84659C6.66659 2.13325 6.43992 2.35992 6.15325 2.35992H4.61325C3.36659 2.35992 2.35992 3.37325 2.35992 4.61325V6.15325C2.35992 6.43992 2.12659 6.66658 1.84659 6.66658Z" fill="white"/>
<path d="M14.1533 6.66658C13.8733 6.66658 13.6399 6.43992 13.6399 6.15325V4.61325C13.6399 3.36659 12.6266 2.35992 11.3866 2.35992H9.84659C9.55992 2.35992 9.33325 2.12659 9.33325 1.84659C9.33325 1.56659 9.55992 1.33325 9.84659 1.33325H11.3866C13.1933 1.33325 14.6666 2.80659 14.6666 4.61325V6.15325C14.6666 6.43992 14.4399 6.66658 14.1533 6.66658Z" fill="white"/>
<path d="M4.59992 6.70659V6.48658C4.59992 5.37992 5.49325 4.48659 6.59992 4.48659H9.39992C10.5066 4.48659 11.3999 5.37992 11.3999 6.48658V6.70659C11.3999 6.78659 11.3399 6.84659 11.2599 6.84659H4.73992C4.65992 6.84659 4.59992 6.78659 4.59992 6.70659Z" fill="white"/>
</g>
</svg>
