<svg viewBox="0 0 16 16" fill="none" xmlns="http://www.w3.org/2000/svg">
<path opacity="0.4" d="M7.99992 14.6667C11.6818 14.6667 14.6666 11.6819 14.6666 8.00004C14.6666 4.31814 11.6818 1.33337 7.99992 1.33337C4.31802 1.33337 1.33325 4.31814 1.33325 8.00004C1.33325 11.6819 4.31802 14.6667 7.99992 14.6667Z" fill="#5CC691"/>
<path d="M7.05321 10.3866C6.91988 10.3866 6.79321 10.3333 6.69988 10.2399L4.81321 8.35328C4.61988 8.15994 4.61988 7.83994 4.81321 7.64661C5.00655 7.45328 5.32655 7.45328 5.51988 7.64661L7.05321 9.17994L10.4799 5.75328C10.6732 5.55994 10.9932 5.55994 11.1865 5.75328C11.3799 5.94661 11.3799 6.26661 11.1865 6.45994L7.40655 10.2399C7.31321 10.3333 7.18655 10.3866 7.05321 10.3866Z" fill="#5CC691"/>
</svg>
